<?xml version="1.0" encoding="UTF-8"?>
<svg width="151px" height="114px" viewBox="0 0 151 114" version="1.1" xmlns="http://www.w3.org/2000/svg" xmlns:xlink="http://www.w3.org/1999/xlink">
    <title>Group 2</title>
    <g id="Page-1" stroke="none" stroke-width="1" fill="none" fill-rule="evenodd">
        <g id="ibrahim-mohamed" transform="translate(-174, -226)" fill="#000000" fill-rule="nonzero">
            <g id="Group-2" transform="translate(174, 226)">
                <g id="Group" transform="translate(75.5, 57) scale(-1, 1) rotate(-180) translate(-75.5, -57)">
                    <path d="M54.6301039,3.33051859e-16 C57.5874923,-3.91299405e-16 58.2260194,0.100844701 60.0071738,0.941217212 C61.1161945,1.44544072 62.460462,2.25219833 62.9645623,2.75642184 C63.8200052,3.58151485 63.953321,3.6565233 67.5053787,3.66334225 L68.0643455,3.66393891 C68.2595597,3.66402415 68.4638383,3.66402415 68.6776991,3.66402415 L69.0592108,3.6648309 C72.0662748,3.67773903 73.994277,3.84554461 74.9621496,4.16824765 C75.1450679,4.22744157 75.3245412,4.29438866 75.5005005,4.36901996 C75.6761452,4.29413267 75.8552819,4.22732839 76.0378504,4.16824765 C77.005723,3.84554461 78.9337252,3.67773903 81.9407892,3.6648309 L82.3223009,3.66402415 C82.5361617,3.66402415 82.7404403,3.66402415 82.9356545,3.66393891 L83.4946213,3.66334225 C87.046679,3.6565233 87.1799948,3.58151485 88.0354377,2.75642184 C88.539538,2.25219833 89.8838055,1.44544072 90.9928262,0.941217212 C92.7739806,0.100844701 93.4125077,0 96.3698961,0 C98.6551508,0 101.142046,0.302534104 104.099434,0.907602312 C108.233057,1.74797482 109.778964,1.98327913 116.265055,2.82365164 C121.541305,3.52956455 125.842961,5.41199897 129.371663,8.63902941 C130.547897,9.68109133 131.522491,10.5550787 131.589704,10.5550787 C131.623311,10.5550787 132.161018,10.4206191 132.799545,10.2189297 C135.118406,9.58024662 137.269234,11.4290661 137.739728,14.4544072 C138.176615,17.5133631 136.227427,18.8579591 133.841352,17.1099843 L132.665118,16.2359969 L132.429871,18.1856611 C132.295444,19.2613379 131.354457,22.5555982 130.346257,25.5137094 C127.355261,34.085509 127.590508,35.0267263 133.673319,39.0268994 C137.967824,41.8355316 139.810335,43.1030066 141.50409,44.5746294 L141.810919,44.8448353 C142.42335,45.3913003 143.034569,45.9787469 143.755325,46.6910967 C146.511073,49.4475185 149.905349,54.1536046 150.611089,56.2377284 C151.888143,60.0698271 149.905349,63.7674661 146.34304,64.2380747 C144.528279,64.473379 141.47007,63.0615532 138.714322,60.7085102 C137.605301,59.767293 135.656113,58.086548 134.345452,56.9436413 C133.068398,55.8343496 131.824951,54.9267473 131.589704,54.9267473 C131.320851,54.9267473 131.488884,55.4982006 131.992984,56.5402625 C134.009386,60.4059761 134.278239,64.7759131 132.833151,69.4483843 L132.161018,71.6669677 L133.135612,72.7090296 C136.261034,76.0369048 136.059393,81.5497485 132.765938,84.3397852 C129.640516,86.9953623 126.179027,86.6592133 122.885572,83.4657978 L121.541305,82.1212018 L119.592117,83.0288041 C118.516703,83.5330276 116.332268,84.2725554 114.719147,84.7095491 C111.324872,85.6507663 106.418295,85.7852259 102.9232,85.0120832 C100.503519,84.5078597 100.705159,84.407015 99.1256445,86.8609027 C97.9494104,88.7097222 95.4289089,90.2223928 93.5469344,90.2223928 C91.6313532,90.2223928 89.6485587,89.3484054 88.1698645,87.8357348 C86.6239569,86.2894494 86.1198566,84.9448534 86.1198566,82.2220465 C86.1198566,80.4068418 86.28789,79.5664693 86.9600237,78.322718 L87.8001909,76.7764326 L86.6575636,74.9948429 C84.5403423,71.6669677 83.5321417,67.1625711 84.1034553,63.5321618 C84.4731289,61.2127337 85.2460827,58.758846 85.8510031,58.0529331 C86.4559234,57.3134052 85.8846098,57.1453307 84.9100158,57.7840138 C83.3977149,58.758846 81.1796736,61.2127337 80.1042596,63.0951681 C79.8104066,63.6279068 79.2777237,64.8172808 78.3100965,65.4019843 C77.5071108,65.8872007 76.2570888,65.8390872 75.9370304,65.7171303 C75.7933858,65.6627062 75.647627,65.5965804 75.5006302,65.5199216 C75.3530326,65.5962811 75.2069392,65.6625831 75.0629696,65.7171303 C74.3572292,65.9860496 74.9285429,66.2236661 75.0629696,66.9968089 C75.7129336,70.0273814 75.5673968,68.8416673 75.8956398,70.5591198 C76.6705739,74.6137761 76.5665738,79.569957 76,84.3397852 C75.7311465,86.6592133 75.6008201,89.04028 75.5,89.5108886 C75.3655733,90.2840313 75.130183,90.5585418 76.4072371,91.2644547 C81.9523405,94.2561808 85.3130092,100.037944 84.9769423,106.122241 C84.7753022,109.987954 83.6326748,112.038463 80.8433198,113.551134 C79.532659,114.290661 76.306417,114.088972 74.2228024,113.147755 C73.3490286,112.777991 71.9711544,111.836774 71.1309872,111.063631 C69.652293,109.68542 69.6186863,109.68542 68.6104857,110.223259 C67.2998249,110.895557 64.9473568,111.198091 63.4014492,110.929171 C59.6038936,110.223259 57.6883124,105.113794 59.6711069,101.113621 C61.8219349,96.8109133 67.8039252,91.7367912 72.5088614,90.6947293 C73.4834553,90.459425 73.3105038,90.3568524 73.7473907,86.8609027 C73.9826375,84.9112385 74.3572292,81.2525995 74.3908359,78.9331714 C74.4580493,75.3699919 74.9285429,74.3912184 74.0883757,70.5591198 C73.3826353,67.466549 72.9457483,65.7507452 72.5088614,65.3809813 C72.1727945,65.0784472 71.4334474,64.0700002 70.8957404,63.0951681 C69.8203264,61.2127337 67.6022851,58.758846 66.0899842,57.7840138 C65.1153902,57.1453307 64.5440766,57.3134052 65.1489969,58.0529331 C65.7539173,58.758846 66.5268711,61.2127337 66.8965447,63.5321618 C67.4678583,67.1625711 66.4596577,71.6669677 64.3424364,74.9948429 L63.1998091,76.7764326 L64.0399763,78.322718 C64.71211,79.5664693 64.8801434,80.4068418 64.8801434,82.2220465 C64.8801434,84.9448534 64.3760431,86.2894494 62.8301355,87.8357348 C61.3514413,89.3484054 59.3686468,90.2223928 57.4530656,90.2223928 C55.5710911,90.2223928 53.0505896,88.7097222 51.8743555,86.8609027 C50.2948414,84.407015 50.4964815,84.5078597 48.0768,85.0120832 C44.5817046,85.7852259 39.6751283,85.6507663 36.2808529,84.7095491 C34.6677319,84.2725554 32.4832972,83.5330276 31.4078832,83.0288041 L29.4586954,82.1212018 L28.1144279,83.4657978 C24.8209726,86.6592133 21.3594838,86.9953623 18.2340619,84.3397852 C14.9406066,81.5497485 14.7389664,76.0369048 17.8643883,72.7090296 L18.8389823,71.6669677 L18.1668485,69.4483843 C16.721761,64.7759131 16.9906145,60.4059761 19.0070157,56.5402625 C19.511116,55.4982006 19.6791494,54.9267473 19.4102959,54.9267473 C19.1750491,54.9267473 17.9316017,55.8343496 16.6545476,56.9436413 C15.3438868,58.086548 13.3946989,59.767293 12.2856783,60.7085102 C9.52992993,63.0615532 6.47172141,64.473379 4.6569603,64.2380747 C1.09465147,63.7674661 -0.888143067,60.0698271 0.388911042,56.2377284 C1.09465147,54.1536046 4.48892687,49.4475185 7.24467521,46.6910967 C7.96543139,45.9787469 8.57665016,45.3913003 9.18908083,44.8448353 L9.49590989,44.5746294 C11.1896652,43.1030066 13.0321757,41.8355316 17.3266813,39.0268994 C23.4094917,35.0267263 23.6447385,34.085509 20.6537434,25.5137094 C19.6455427,22.5555982 18.7045555,19.2613379 18.5701288,18.1856611 L18.3348819,16.2359969 L17.1586479,17.1099843 C14.7725731,18.8579591 12.8233853,17.5133631 13.2602722,14.4544072 C13.7307658,11.4290661 15.8815938,9.58024662 18.2004552,10.2189297 C18.8389823,10.4206191 19.3766892,10.5550787 19.4102959,10.5550787 C19.4775093,10.5550787 20.4521032,9.68109133 21.6283373,8.63902941 C25.1570394,5.41199897 29.4586954,3.52956455 34.7349452,2.82365164 C41.2210359,1.98327913 42.7669435,1.74797482 46.900566,0.907602312 C49.8579544,0.302534104 52.3448492,8.92777835e-16 54.6301039,3.33051859e-16 Z M81.1952007,21.5856129 L81.1426533,21.6887305 C81.1018181,21.7651714 81.0581104,21.8409162 81.0113532,21.9169151 C79.7679058,23.9338091 77.9531447,24.0682687 75.2982164,22.3202939 L75.5,22.449 L75.4696987,22.4696418 C72.9405988,24.0587309 71.1955222,23.8744887 69.9886468,21.9169151 C69.9209506,21.8068819 69.8596465,21.6973815 69.804198,21.5855295 C68.3895361,21.975386 66.9953957,22.7682834 65.787524,23.9338091 C63.6030893,26.0179329 63.5694826,26.2532372 63.4350559,33.8502047 L63.3342358,40.7412593 L64.2080097,41.2454828 C65.6867039,42.1530851 70.3916401,46.4221775 71.6014809,48.0020778 C72.2400079,48.8424503 72.9457483,49.5147483 73.1137818,49.5483632 C73.3154219,49.5483632 73.7523088,47.7331586 74.0883757,45.5145752 C74.5252626,42.6573087 74.8613295,41.4807871 75.1973964,41.4807871 C75.8023167,41.4807871 75.7687101,42.522849 74.9621496,46.3549477 C74.592476,48.1365374 74.2900158,49.9853569 74.2900158,50.4223507 C74.2900158,50.8029784 74.7538172,51.6699683 75.4908338,52.7550224 C76.7676092,51.0092233 77.7734705,49.5483632 77.8862182,49.5483632 C78.0542517,49.5147483 78.7599921,48.8424503 79.3985191,48.0020778 C80.6083599,46.4221775 85.3132961,42.1530851 86.7919903,41.2454828 L87.6657642,40.7412593 L87.5649441,33.8502047 C87.4305174,26.2532372 87.3969107,26.0179329 85.212476,23.9338091 C84.0046043,22.7682834 82.6104639,21.975386 81.1952007,21.5856129 Z" id="Combined-Shape"></path>
                </g>
            </g>
        </g>
    </g>
</svg>